# xmcd
#
# Track frame offsets:
#	150
#	17239
#	33623
#	51218
#	71934
#	95285
#	117245
#	138845
#	159919
#	176477
#	192292
#	218731
#
# Disc length: 3138 seconds
# Revision: 1
# Processed by: cddbd v1.5.2PL0 Copyright (c) Steve Scherf et al.
# Submitted via: dBpowerAMP V12.0
#
DISCID=a50c400c
DTITLE=The Nimmo Brothers - Brother To Brother
DYEAR=2012
DGENRE=Blues
TTITLE0=Still Here Strumming
TTITLE1=Lady Luck
TTITLE2=Coming Around Again
TTITLE3=For You
TTITLE4=Sneaking Up On You
TTITLE5=Never Gonna Walk On Me
TTITLE6=Living Again
TTITLE7=Waiting For My Heart To Fall
TTITLE8=All I Need Inside
TTITLE9=Wishing Well
TTITLE10=King And Country
TTITLE11=The Shape I'm In
EXTD=
EXTT0=
EXTT1=
EXTT2=
EXTT3=
EXTT4=
EXTT5=
EXTT6=
EXTT7=
EXTT8=
EXTT9=
EXTT10=
EXTT11=
PLAYORDER=
